<svg width="160" height="160" viewBox="0 0 160 160" fill="none" xmlns="http://www.w3.org/2000/svg">
    <g clip-path="url(#clip0)">
        <mask id="mask0" mask-type="alpha" maskUnits="userSpaceOnUse" x="1" y="0" width="67" height="49">
            <path d="M29.8819 5.28178C17.1225 7.73603 7.14159 17.7701 4.70349 30.6032C3.56825 36.5741 2.63873 42.573 1.91492 48.5925C14.5244 47.2159 30.047 43.5333 43.2508 34.4569C54.2248 26.9129 60.0483 14.0517 67.1568 0.845749C54.6692 1.43313 42.2121 2.91181 29.8819 5.28178Z" fill="white"/>
        </mask>
        <g mask="url(#mask0)">
            <path fill-rule="evenodd" clip-rule="evenodd" d="M29.8819 5.28178C17.1225 7.73603 7.14159 17.7701 4.70349 30.6032C3.56825 36.5741 2.63873 42.573 1.91492 48.5925C14.5244 47.2159 30.047 43.5333 43.2508 34.4569C54.2248 26.9129 60.0483 14.0517 67.1568 0.845749C54.6692 1.43313 42.2121 2.91181 29.8819 5.28178Z" fill="url(#paint0_linear)"/>
        </g>
        <mask id="mask1" mask-type="alpha" maskUnits="userSpaceOnUse" x="0" y="0" width="145" height="115">
            <path d="M79.0095 0.554611C74.3416 0.562273 69.6736 0.697627 65.0083 0.955565C58.1486 13.7095 52.5079 26.1186 41.9073 33.4047C29.1962 42.1414 14.273 45.7194 2.10286 47.0704C-0.716191 69.4293 -0.698413 92.0564 2.15873 114.408C13.7092 98.3567 28.7543 91.2417 39.266 89.8115C75.8984 84.8366 87.4235 60.1026 103.944 33.7367C113.041 19.2156 128.978 13.9163 144.028 12.55C139.891 8.92356 134.801 6.36461 129.168 5.28178C112.94 2.16353 96.4902 0.585257 80.0381 0.554611H79.0095Z" fill="white"/>
        </mask>
        <g mask="url(#mask1)">
            <path fill-rule="evenodd" clip-rule="evenodd" d="M79.0095 0.554611C74.3416 0.562273 69.6736 0.697627 65.0083 0.955565C58.1486 13.7095 52.5079 26.1186 41.9073 33.4047C29.1962 42.1414 14.273 45.7194 2.10286 47.0704C-0.716191 69.4293 -0.698413 92.0564 2.15873 114.408C13.7092 98.3567 28.7543 91.2417 39.266 89.8115C75.8984 84.8366 87.4235 60.1026 103.944 33.7367C113.041 19.2156 128.978 13.9163 144.028 12.55C139.891 8.92356 134.801 6.36461 129.168 5.28178C112.94 2.16353 96.4902 0.585257 80.0381 0.554611H79.0095Z" fill="url(#paint1_linear)"/>
        </g>
        <mask id="mask2" mask-type="alpha" maskUnits="userSpaceOnUse" x="0" y="11" width="160" height="145">
            <path d="M103.944 32.4087C87.4235 58.7772 79.5225 77.9821 42.8927 82.9621C31.9822 84.4408 12.7365 85.0077 0.868571 102.034C1.63556 111.55 2.91556 121.032 4.70349 130.443C7.10857 143.113 16.8711 153.052 29.3994 155.665C31.6216 136.738 38.8038 119.758 58.7352 107.732C88.4343 89.8115 100.312 100.762 131.002 91.8035C142.857 88.3431 152.056 82.3288 159.012 76.0156C158.756 60.8049 157.199 45.6096 154.344 30.6032C152.863 22.7935 148.589 16.0233 142.593 11.365C127.972 12.9357 112.752 18.3498 103.944 32.4087Z" fill="white"/>
        </mask>
        <g mask="url(#mask2)">
            <path fill-rule="evenodd" clip-rule="evenodd" d="M103.944 32.4087C87.4235 58.7772 79.5225 77.9821 42.8927 82.9621C31.9822 84.4408 12.7365 85.0077 0.868571 102.034C1.63556 111.55 2.91556 121.032 4.70349 130.443C7.10857 143.113 16.8711 153.052 29.3994 155.665C31.6216 136.738 38.8038 119.758 58.7352 107.732C88.4343 89.8115 100.312 100.762 131.002 91.8035C142.857 88.3431 152.056 82.3288 159.012 76.0156C158.756 60.8049 157.199 45.6096 154.344 30.6032C152.863 22.7935 148.589 16.0233 142.593 11.365C127.972 12.9357 112.752 18.3498 103.944 32.4087Z" fill="url(#paint2_linear)"/>
        </g>
        <mask id="mask3" mask-type="alpha" maskUnits="userSpaceOnUse" x="90" y="119" width="67" height="42">
            <path d="M126.024 123.042C102.499 131.687 93.6178 150.435 90.4889 160.262C103.446 159.721 116.373 158.221 129.168 155.762C141.93 153.308 151.909 143.274 154.344 130.443C155.043 126.768 155.665 123.083 156.208 119.39C155.126 119.367 154.024 119.354 152.907 119.354C143.86 119.354 133.801 120.179 126.024 123.042Z" fill="white"/>
        </mask>
        <g mask="url(#mask3)">
            <path fill-rule="evenodd" clip-rule="evenodd" d="M126.024 123.042C102.499 131.687 93.6178 150.435 90.4889 160.262C103.446 159.721 116.373 158.221 129.168 155.762C141.93 153.308 151.909 143.274 154.344 130.443C155.043 126.768 155.665 123.083 156.208 119.39C155.126 119.367 154.024 119.354 152.907 119.354C143.86 119.354 133.801 120.179 126.024 123.042Z" fill="url(#paint3_linear)"/>
        </g>
        <mask id="mask4" mask-type="alpha" maskUnits="userSpaceOnUse" x="27" y="74" width="133" height="87">
            <path d="M130.596 90.8152C99.4641 99.9018 87.4159 88.7951 57.2876 106.971C37.1962 119.091 29.8743 136.177 27.5708 155.228C28.3302 155.433 29.0997 155.611 29.8819 155.762C46.1079 158.88 62.5524 160.459 79.0019 160.489H80.0483C84.6273 160.482 89.2064 160.351 93.7803 160.104C96.8127 150.698 105.305 133 127.581 124.809C135.784 121.793 146.644 121.15 155.916 121.323C158.004 107.803 159.05 94.1633 159.05 80.5232C159.05 78.6206 159.03 76.718 158.989 74.8154C151.937 81.2178 142.611 87.3037 130.596 90.8152Z" fill="white"/>
        </mask>
        <g mask="url(#mask4)">
            <path fill-rule="evenodd" clip-rule="evenodd" d="M130.596 90.8152C99.4641 99.9018 87.4159 88.7951 57.2876 106.971C37.1962 119.091 29.8743 136.177 27.5708 155.228C28.3302 155.433 29.0997 155.611 29.8819 155.762C46.1079 158.88 62.5524 160.459 79.0019 160.489H80.0483C84.6273 160.482 89.2064 160.351 93.7803 160.104C96.8127 150.698 105.305 133 127.581 124.809C135.784 121.793 146.644 121.15 155.916 121.323C158.004 107.803 159.05 94.1633 159.05 80.5232C159.05 78.6206 159.03 76.718 158.989 74.8154C151.937 81.2178 142.611 87.3037 130.596 90.8152Z" fill="url(#paint4_linear)"/>
        </g>
        <path d="M19.72 40.08V34H44.92V40.08H35.76V62H28.88V40.08H19.72ZM75.2791 48C75.2791 50 74.8924 51.8933 74.1191 53.68C73.3457 55.44 72.2924 56.9733 70.9591 58.28C69.6257 59.56 68.0391 60.5733 66.1991 61.32C64.3591 62.0667 62.3991 62.44 60.3191 62.44C58.2391 62.44 56.2791 62.0667 54.4391 61.32C52.5991 60.5733 51.0124 59.56 49.6791 58.28C48.3457 56.9733 47.2924 55.44 46.5191 53.68C45.7457 51.8933 45.3591 50 45.3591 48C45.3591 46 45.7457 44.12 46.5191 42.36C47.2924 40.5733 48.3457 39.04 49.6791 37.76C51.0124 36.4533 52.5991 35.4267 54.4391 34.68C56.2791 33.9333 58.2391 33.56 60.3191 33.56C62.3991 33.56 64.3591 33.9333 66.1991 34.68C68.0391 35.4267 69.6257 36.4533 70.9591 37.76C72.2924 39.04 73.3457 40.5733 74.1191 42.36C74.8924 44.12 75.2791 46 75.2791 48ZM68.1991 48C68.1991 46.8533 67.9991 45.7867 67.5991 44.8C67.1991 43.7867 66.6391 42.92 65.9191 42.2C65.2257 41.48 64.3991 40.92 63.4391 40.52C62.4791 40.0933 61.4391 39.88 60.3191 39.88C59.1991 39.88 58.1591 40.0933 57.1991 40.52C56.2391 40.92 55.3991 41.48 54.6791 42.2C53.9857 42.92 53.4391 43.7867 53.0391 44.8C52.6391 45.7867 52.4391 46.8533 52.4391 48C52.4391 49.1467 52.6391 50.2267 53.0391 51.24C53.4391 52.2267 53.9857 53.08 54.6791 53.8C55.3991 54.52 56.2391 55.0933 57.1991 55.52C58.1591 55.92 59.1991 56.12 60.3191 56.12C61.4391 56.12 62.4791 55.92 63.4391 55.52C64.3991 55.0933 65.2257 54.52 65.9191 53.8C66.6391 53.08 67.1991 52.2267 67.5991 51.24C67.9991 50.2267 68.1991 49.1467 68.1991 48ZM104.017 49.8C104.017 51.6933 103.711 53.4267 103.097 55C102.484 56.5467 101.617 57.8667 100.497 58.96C99.4039 60.0533 98.0705 60.9067 96.4972 61.52C94.9239 62.1067 93.1772 62.4 91.2572 62.4C89.3372 62.4 87.5772 62.1067 85.9772 61.52C84.4039 60.9333 83.0705 60.0933 81.9772 59C80.8839 57.9067 80.0305 56.5867 79.4172 55.04C78.8305 53.4667 78.5372 51.72 78.5372 49.8V34H85.4172V49.8C85.4172 51.6933 85.9505 53.2133 87.0172 54.36C88.1105 55.48 89.5372 56.04 91.2972 56.04C93.0572 56.04 94.4705 55.48 95.5372 54.36C96.6039 53.2133 97.1372 51.6933 97.1372 49.8V34H104.017V49.8ZM108.273 62V34H122.593C124.033 34 125.353 34.2267 126.553 34.68C127.78 35.1067 128.82 35.72 129.673 36.52C130.553 37.2933 131.233 38.2267 131.713 39.32C132.22 40.4133 132.473 41.6133 132.473 42.92C132.473 44.68 131.993 46.2533 131.033 47.64C130.073 49.0267 128.806 50.08 127.233 50.8L133.353 62H125.673L120.393 51.8H115.153V62H108.273ZM121.953 39.88H115.153V46.2H121.953C123.02 46.2 123.873 45.9067 124.513 45.32C125.18 44.7333 125.513 43.9733 125.513 43.04C125.513 42.1067 125.18 41.3467 124.513 40.76C123.873 40.1733 123.02 39.88 121.953 39.88Z" fill="white"/>
    </g>
    <defs>
        <linearGradient id="paint0_linear" x1="61.0013" y1="14.5395" x2="14.3645" y2="30.248" gradientUnits="userSpaceOnUse">
            <stop stop-color="#121C28"/>
            <stop offset="1" stop-color="#2A2367"/>
        </linearGradient>
        <linearGradient id="paint1_linear" x1="114.404" y1="20.2994" x2="39.0881" y2="89.0192" gradientUnits="userSpaceOnUse">
            <stop stop-color="#28235B"/>
            <stop offset="1" stop-color="#E6007E"/>
        </linearGradient>
        <linearGradient id="paint2_linear" x1="147.997" y1="55.3693" x2="21.0256" y2="123.426" gradientUnits="userSpaceOnUse">
            <stop stop-color="#FF9500"/>
            <stop offset="1" stop-color="#E6007E"/>
        </linearGradient>
        <linearGradient id="paint3_linear" x1="154.688" y1="138.523" x2="112.34" y2="156.725" gradientUnits="userSpaceOnUse">
            <stop stop-color="#E6332A"/>
            <stop offset="1" stop-color="#FF645B"/>
        </linearGradient>
        <linearGradient id="paint4_linear" x1="132.879" y1="107.08" x2="84.638" y2="147.806" gradientUnits="userSpaceOnUse">
            <stop stop-color="#FF9500"/>
            <stop offset="1" stop-color="#FF645B"/>
        </linearGradient>
        <clipPath id="clip0">
            <rect width="160" height="160" fill="white"/>
        </clipPath>
    </defs>
</svg>
